<svg width="32" height="39" viewBox="0 0 32 39" fill="none" xmlns="http://www.w3.org/2000/svg">
<path d="M2.27344 2.78406L3.97822 4.53613L2.27344 2.78406Z" fill="#FFF7B1"/>
<path d="M2.27344 2.78406L3.97822 4.53613" stroke="#202020" stroke-width="4" stroke-linecap="round" stroke-linejoin="round"/>
<path d="M3.97822 5.53613L2.27344 7.28821L3.97822 5.53613Z" fill="#FFF7B1"/>
<path d="M3.97822 5.53613L2.27344 7.28821" stroke="#202020" stroke-width="4" stroke-linecap="round" stroke-linejoin="round"/>
<path d="M12.5035 8.28821C5.68415 8.28821 2.19303 11.7053 2.27484 17.0486C2.31472 19.6537 3.12698 21.4288 4.83202 23.1808C6.53705 24.9329 7.38945 25.809 7.38919 29.3131H17.6178C17.6181 25.8091 18.4705 24.9329 20.1748 23.181C21.8794 21.4289 22.6924 19.6537 22.7321 17.0486C22.814 11.7053 19.3229 8.28821 12.5035 8.28821Z" fill="#FFF7B1" stroke="#202020" stroke-width="4" stroke-linecap="round" stroke-linejoin="round"/>
<path d="M2.27344 32.0652L3.97822 30.3131L2.27344 32.0652Z" fill="#FFF7B1"/>
<path d="M2.27344 32.0652L3.97822 30.3131" stroke="#202020" stroke-width="4" stroke-linecap="round" stroke-linejoin="round"/>
<path d="M3.97822 34.8173L2.27344 33.0652L3.97822 34.8173Z" fill="#FFF7B1"/>
<path d="M3.97822 34.8173L2.27344 33.0652" stroke="#202020" stroke-width="4" stroke-linecap="round" stroke-linejoin="round"/>
<path d="M2.27344 35.8173H12.5021H2.27344Z" fill="#FFF7B1"/>
<path d="M2.27344 35.8173H12.5021" stroke="#202020" stroke-width="4" stroke-linecap="round" stroke-linejoin="round"/>
<path d="M2.27344 36.8173H9.09257H2.27344Z" fill="#FFF7B1"/>
<path d="M2.27344 36.8173H9.09257" stroke="#202020" stroke-width="4" stroke-linecap="round" stroke-linejoin="round"/>
</svg>
