<svg width="32" height="39" viewBox="0 0 32 39" fill="none" xmlns="http://www.w3.org/2000/svg">
<path d="M2.27344 2.80472L3.97822 4.55679L2.27344 2.80472Z" fill="#FFF7B1"/>
<path d="M2.27344 2.80472L3.97822 4.55679" stroke="#202020" stroke-width="4" stroke-linecap="round" stroke-linejoin="round"/>
<path d="M3.97822 5.55679L2.27344 7.30887L3.97822 5.55679Z" fill="#FFF7B1"/>
<path d="M3.97822 5.55679L2.27344 7.30887" stroke="#202020" stroke-width="4" stroke-linecap="round" stroke-linejoin="round"/>
<path d="M12.5035 8.30887C5.68415 8.30887 2.19303 11.7259 2.27484 17.0692C2.31472 19.6744 3.12698 21.4494 4.83202 23.2015C6.53705 24.9536 7.38945 25.8296 7.38919 29.3338H17.6178C17.6181 25.8298 18.4705 24.9536 20.1748 23.2017C21.8794 21.4496 22.6924 19.6744 22.7321 17.0692C22.814 11.7259 19.3229 8.30887 12.5035 8.30887Z" fill="#FFF7B1" stroke="#202020" stroke-width="4" stroke-linecap="round" stroke-linejoin="round"/>
<path d="M2.27344 32.0858L3.97822 30.3338L2.27344 32.0858Z" fill="#FFF7B1"/>
<path d="M2.27344 32.0858L3.97822 30.3338" stroke="#202020" stroke-width="4" stroke-linecap="round" stroke-linejoin="round"/>
<path d="M3.97822 34.8379L2.27344 33.0858L3.97822 34.8379Z" fill="#FFF7B1"/>
<path d="M3.97822 34.8379L2.27344 33.0858" stroke="#202020" stroke-width="4" stroke-linecap="round" stroke-linejoin="round"/>
<path d="M2.27344 35.8379H12.5021H2.27344Z" fill="#FFF7B1"/>
<path d="M2.27344 35.8379H12.5021" stroke="#202020" stroke-width="4" stroke-linecap="round" stroke-linejoin="round"/>
<path d="M2.27344 36.8379H9.09257H2.27344Z" fill="#FFF7B1"/>
<path d="M2.27344 36.8379H9.09257" stroke="#202020" stroke-width="4" stroke-linecap="round" stroke-linejoin="round"/>
</svg>
